<svg width="631" height="574" viewBox="0 0 631 574" fill="none" xmlns="http://www.w3.org/2000/svg">
<path d="M626.008 164.154H520.871V273.751H626.008V164.154Z" fill="#E0E0E0"/>
<path d="M618.891 164.154H513.755V273.751H618.891V164.154Z" fill="#FAFAFA"/>
<path d="M618.919 273.778H513.728V164.127H618.919V273.778ZM513.782 273.71H618.851V164.181H513.782V273.71Z" fill="#E0E0E0"/>
<path d="M604.767 178.889H527.893V259.016H604.767V178.889Z" fill="#FAFAFA"/>
<path d="M527.893 259.544C527.34 260.346 526.704 261.086 525.995 261.754C524.762 263.109 523.04 264.804 521.102 266.702C519.163 268.599 517.387 270.307 516.086 271.514C515.423 272.216 514.676 272.835 513.863 273.357C514.405 272.556 515.037 271.819 515.747 271.161C516.981 269.874 518.702 268.111 520.641 266.2C522.579 264.289 524.369 262.594 525.67 261.388C526.333 260.685 527.08 260.066 527.893 259.544Z" fill="#E0E0E0"/>
<path d="M604.753 259.354C605.566 259.893 606.308 260.53 606.962 261.252C608.318 262.472 610.012 264.194 611.91 266.132C613.808 268.071 615.516 269.846 616.722 271.148C617.425 271.811 618.044 272.558 618.566 273.371C617.764 272.83 617.027 272.198 616.37 271.487C615.082 270.267 613.32 268.532 611.409 266.593C609.497 264.655 607.803 262.865 606.596 261.564C605.9 260.9 605.282 260.158 604.753 259.354Z" fill="#E0E0E0"/>
<path d="M604.55 179.106C605.083 178.29 605.721 177.547 606.447 176.896C607.667 175.541 609.389 173.846 611.327 171.935C613.266 170.024 615.042 168.343 616.356 167.136C617.02 166.435 617.761 165.812 618.566 165.279C618.033 166.088 617.4 166.826 616.682 167.475C615.462 168.831 613.727 170.525 611.788 172.436C609.85 174.348 608.074 176.056 606.759 177.262C606.095 177.958 605.353 178.577 604.55 179.106Z" fill="#E0E0E0"/>
<path d="M527.676 179.296C526.871 178.748 526.13 178.111 525.467 177.398C524.179 176.178 522.43 174.443 520.519 172.518C518.607 170.593 516.913 168.804 515.707 167.489C515.009 166.821 514.391 166.075 513.863 165.266C514.664 165.808 515.401 166.44 516.059 167.15C517.347 168.383 519.109 170.119 521.02 172.057C522.932 173.995 524.626 175.771 525.833 177.086C526.529 177.75 527.147 178.492 527.676 179.296Z" fill="#E0E0E0"/>
<path d="M604.55 259.016C604.536 258.885 604.536 258.753 604.55 258.623C604.55 258.351 604.55 257.985 604.55 257.511C604.55 256.508 604.55 255.057 604.55 253.187C604.55 249.391 604.55 243.861 604.468 236.852C604.468 222.822 604.373 202.828 604.319 178.889L604.617 179.187H527.961L528.3 178.848C528.3 208.25 528.3 235.781 528.3 258.975L528.015 258.677L583.511 258.826L599.1 258.907H603.235H604.292H603.289H599.222L583.701 258.975L528.015 259.124H527.717V258.839C527.717 235.632 527.717 208.115 527.717 178.713V178.374H528.069H604.726H605.024V178.672C604.956 202.679 604.902 222.741 604.861 236.825C604.861 243.806 604.861 249.31 604.794 253.092C604.794 254.935 604.794 256.359 604.794 257.348C604.794 257.823 604.794 258.175 604.794 258.446C604.794 258.717 604.55 259.016 604.55 259.016Z" fill="#E0E0E0"/>
<path d="M579.147 206.122H553.5V231.769H579.147V206.122Z" fill="#EBEBEB"/>
<path d="M522.856 3.56352L173.815 13.3131L188.129 525.756L537.17 516.007L522.856 3.56352Z" fill="#E0E0E0"/>
<path d="M503.251 19.1265L154.599 0L126.518 511.873L475.171 531L503.251 19.1265Z" fill="#F5F5F5"/>
<path d="M564.202 52.2129L216.286 22.5694L172.765 533.362L520.681 563.005L564.202 52.2129Z" fill="#EBEBEB"/>
<path d="M31.1911 458.241C25.8936 454.923 19.9078 452.86 13.691 452.209C10.8307 451.924 7.69941 452.006 5.40852 453.741C5.14413 453.892 4.92529 454.111 4.77501 454.376C4.62473 454.641 4.54857 454.941 4.55452 455.246C4.68534 455.68 4.97603 456.048 5.36786 456.276C9.08348 458.928 13.4537 460.513 18.0054 460.859C22.5572 461.205 27.117 460.3 31.1911 458.241Z" fill="#E0E0E0"/>
<path d="M30.744 457.74C26.6857 454.768 22.9021 451.438 19.4387 447.79C15.9534 444.128 13.5064 439.603 12.3491 434.682C12.1163 433.956 12.0454 433.187 12.1414 432.431C12.2374 431.674 12.498 430.948 12.9049 430.303C21.9193 437.339 28.9953 446.448 30.744 457.74Z" fill="#E0E0E0"/>
<path d="M31.0964 458.174C30.2618 453.255 30.3307 448.225 31.2997 443.33C32.3198 438.417 35.1443 434.064 39.2161 431.13C40.775 434.777 40.0973 438.965 38.9993 442.774C37.2977 448.661 34.6516 454.233 31.1642 459.272" fill="#E0E0E0"/>
<path d="M39.9346 474.006C34.6287 474.856 29.7197 477.339 25.8911 481.109C21.8665 484.774 19.0652 489.586 17.8662 494.895C23.1258 494.57 27.5855 490.829 30.8253 486.694C34.0651 482.56 36.2475 477.978 39.8533 474.088" fill="#E0E0E0"/>
<path d="M41.8596 476.528C39.7509 471.167 39.0123 465.365 39.7105 459.646C40.4087 453.928 42.5218 448.474 45.8584 443.778C48.922 454.622 47.7969 466.93 41.8596 476.528Z" fill="#E0E0E0"/>
<path d="M53.5173 490.436C48.6173 490.138 43.7375 491.284 39.4824 493.732C35.2273 496.18 31.7837 499.822 29.5782 504.208C29.2936 504.805 29.0225 505.564 29.4291 506.092C29.635 506.294 29.8876 506.442 30.1643 506.522C30.441 506.602 30.7332 506.613 31.0151 506.553C35.7324 506.255 39.9075 503.408 43.3642 500.182C46.8209 496.956 49.8166 493.215 53.6257 490.422" fill="#E0E0E0"/>
<path d="M53.1515 489.677C50.6399 481.587 50.4847 472.95 52.7041 464.775C53.5852 461.563 55.0628 458.187 58.0179 456.642C58.1371 456.565 58.2708 456.514 58.4106 456.49C58.5504 456.467 58.6936 456.473 58.8312 456.506C59.0752 456.629 59.2605 456.844 59.3463 457.103C60.3482 459.344 60.7812 461.798 60.607 464.247C60.4286 466.681 60.0523 469.098 59.4819 471.472C58.5466 475.904 58.045 480.649 55.6321 484.458C55.0453 485.39 54.5201 486.359 54.0597 487.359C53.5988 488.321 53.5988 488.714 53.1786 489.433" fill="#E0E0E0"/>
<path d="M84.0442 494.285C83.0125 489.738 82.9825 485.021 83.9563 480.461C84.93 475.902 86.8843 471.608 89.6833 467.879C90.0765 467.351 90.6187 466.781 91.2829 466.849C92.286 466.944 92.5571 468.286 92.5029 469.303C92.0882 478.26 89.1565 486.919 84.0442 494.285Z" fill="#E0E0E0"/>
<path d="M86.8367 496.183C92.2411 497.457 97.8576 497.544 103.299 496.437C108.74 495.33 113.876 493.056 118.353 489.771C113.077 487.124 107.046 486.386 101.287 487.684C95.5935 489.039 90.4424 491.534 86.8367 496.183Z" fill="#E0E0E0"/>
<path d="M89.1819 490.382C95.1057 480.73 106.465 474.427 117.784 473.844C116.429 478.453 112.701 481.977 108.431 484.187C104.065 486.175 99.4433 487.544 94.699 488.253C92.8825 488.619 90.3748 488.999 89.1819 490.436" fill="#E0E0E0"/>
<path d="M84.6407 462.254C86.4288 456.808 87.6552 451.194 88.3007 445.499C88.9115 439.784 87.7472 434.019 84.966 428.989C79.4218 439.697 78.866 452.209 84.478 462.877" fill="#E0E0E0"/>
<path d="M103.28 452.833C109.746 441.067 122.949 431.673 136.314 430.358C131.163 443.195 117.106 453.104 103.28 452.833Z" fill="#E0E0E0"/>
<path d="M99.1992 455.137C108.851 456.615 117.079 462.769 126.093 466.51C127.986 467.421 130.084 467.823 132.18 467.676C133.153 467.664 134.1 467.354 134.891 466.787C135.683 466.221 136.282 465.425 136.607 464.507C136.932 463.589 136.968 462.594 136.71 461.655C136.451 460.717 135.911 459.88 135.162 459.258C133.887 458.066 132.384 457.143 130.743 456.547C120.915 452.48 110.41 452.358 100.026 454.839" fill="#E0E0E0"/>
<path d="M93.6144 461.915C95.7969 462.538 96.5424 463.663 98.2775 465.141C104.16 470.15 111.118 473.736 118.611 475.619C119.383 475.809 120.414 475.891 120.793 475.186C121.173 474.481 120.698 473.83 120.265 473.274C116.985 469.434 112.734 466.545 107.956 464.911C103.239 463.162 99.1722 461.047 93.5466 461.508" fill="#E0E0E0"/>
<path d="M87.311 421.018C91.2682 424.668 95.9452 427.449 101.042 429.184C106.138 430.918 111.541 431.568 116.903 431.09C117.398 431.094 117.879 430.921 118.258 430.602C119.004 429.788 118.109 428.541 117.242 427.89C108.539 421.113 97.9928 418.293 87.311 421.045" fill="#E0E0E0"/>
<path d="M94.7261 418.28C99.9664 414.423 106.045 411.861 112.465 410.803C118.885 409.745 125.464 410.221 131.665 412.193C126.827 416.677 120.618 419.399 114.043 419.92C107.557 420.506 101.02 419.951 94.7261 418.28Z" fill="#E0E0E0"/>
<path d="M91.8117 399.492C90.9577 390.803 91.5135 383.957 90.9171 375.227C90.9171 374.536 90.7137 373.695 90.0631 373.438C89.1548 373.086 88.3957 374.211 88.0975 375.132C86.8346 379.177 86.5115 383.457 87.1528 387.645C87.7941 391.834 89.3829 395.82 91.7982 399.302" fill="#E0E0E0"/>
<path d="M91.1882 400.522C96.8677 396.837 101.757 392.058 105.571 386.465C108.417 382.588 110.817 377.925 110.166 373.153C108.167 373.205 106.203 373.693 104.412 374.582C102.62 375.472 101.045 376.742 99.796 378.304C97.3103 381.445 95.5053 385.069 94.4958 388.945C93.3436 392.768 92.5438 396.699 91.1882 400.454" fill="#E0E0E0"/>
<path d="M105.326 396.523C118.279 391.732 130.271 384.662 140.734 375.647C136.504 373.953 131.651 374.97 127.436 376.678C117.831 380.316 109.896 387.354 105.137 396.455" fill="#E0E0E0"/>
<path d="M95.1597 405.199C101.681 406.132 108.299 406.164 114.829 405.293C121.2 404.236 127.219 401.715 133.169 399.207C133.688 399.056 134.133 398.718 134.416 398.258C134.523 397.983 134.537 397.681 134.457 397.397C134.376 397.113 134.205 396.863 133.969 396.686C133.516 396.319 132.981 396.068 132.41 395.954C125.931 394.137 118.95 394.991 112.579 397.133C106.51 399.214 100.673 401.917 95.1597 405.199Z" fill="#E0E0E0"/>
<path d="M57.8413 421.316C53.3815 412.315 53.6798 401.81 57.5295 392.538C60.2406 396.672 60.566 401.932 60.078 406.839C59.59 411.746 58.126 416.788 57.9904 421.763" fill="#E0E0E0"/>
<path d="M40.0297 412.329C34.4474 412.255 28.9112 413.347 23.7758 415.537C18.6403 417.726 14.0189 420.965 10.2075 425.044C15.8343 425.712 21.531 424.653 26.5419 422.007C31.5034 419.37 36.1818 416.231 40.5041 412.641" fill="#E0E0E0"/>
<path d="M28.0599 408.33C22.6377 407.883 17.3646 407.205 12.1322 408.818C9.48862 409.559 7.0361 410.861 4.94226 412.637C2.84841 414.413 1.16259 416.619 0 419.106C5.13303 419.516 10.2821 418.543 14.9111 416.287C19.5196 414.034 23.9158 411.371 28.0464 408.33" fill="#E0E0E0"/>
<path d="M45.7908 408.506C40.8837 405.293 35.8546 402.027 30.1477 400.698C24.4409 399.37 17.8393 400.359 13.8811 404.656C18.49 407.367 24.0884 407.679 29.4429 407.679C34.7973 407.679 41.3717 407.679 46.4144 409.401" fill="#E0E0E0"/>
<path d="M45.8175 408.764C37.4401 400.549 34.2681 385.719 37.6841 374.522C44.278 384.65 47.1527 396.753 45.8175 408.764Z" fill="#E0E0E0"/>
<path d="M68.8486 385.462C70.4346 381.788 71.5597 377.938 72.9153 374.197C74.2111 370.405 76.1964 366.885 78.7713 363.814C81.3877 360.715 85.1166 358.767 89.1548 358.391C87.8693 364.064 85.4136 369.405 81.9449 374.073C78.4762 378.742 74.071 382.634 69.0113 385.502" fill="#E0E0E0"/>
<path d="M64.687 390.315C62.0708 386.722 59.0479 381.842 55.5099 379.158C51.9719 376.474 47.3766 374.834 43.0117 375.878C45.255 379.805 48.3835 383.155 52.1487 385.661C55.9138 388.168 60.2116 389.761 64.7006 390.315" fill="#E0E0E0"/>
<path d="M65.514 385.76C63.6611 381.467 62.297 376.979 61.4474 372.38C60.5997 367.754 61.3401 362.977 63.5485 358.825C68.1438 367.514 69.6214 376.854 65.8123 385.936" fill="#E0E0E0"/>
<path d="M68.8893 358.771C71.492 350.163 79.3813 343.86 87.867 340.905C88.9218 340.471 90.066 340.298 91.2017 340.403C91.765 340.47 92.2967 340.699 92.7323 341.062C93.1679 341.426 93.4885 341.908 93.6553 342.45C93.967 343.927 92.747 345.161 91.6084 346.205C84.9538 351.896 77.2098 356.171 68.8486 358.771" fill="#E0E0E0"/>
<path d="M68.9705 351.722C69.3094 346.164 69.6483 340.525 71.4512 335.266C73.2541 330.006 76.7514 325.058 81.8076 322.754C82.6752 328.366 80.1945 333.951 77.2123 338.777C74.2301 343.602 70.6243 348.157 68.835 353.552" fill="#E0E0E0"/>
<path d="M68.8486 355.558C66.6933 349.268 66.4764 341.298 62.7215 335.821C60.0917 331.999 55.9437 329.396 53.6122 325.343C52.2451 329.23 52.4345 333.494 54.1409 337.245C55.8539 340.949 58.2081 344.322 61.0948 347.208C63.8873 350.177 66.2595 352.413 68.8486 355.558Z" fill="#E0E0E0"/>
<path d="M68.8893 540.469C68.7266 540.469 68.5775 498.583 68.5639 446.936C68.5504 395.29 68.6859 353.403 68.8486 353.403C69.0113 353.403 69.1604 395.29 69.1739 446.936C69.1875 498.583 69.0655 540.469 68.8893 540.469Z" fill="#E0E0E0"/>
<path d="M105.57 414.999C105.059 415.239 104.529 415.434 103.984 415.582L99.6601 417.046C96.0001 418.293 90.9845 420.096 85.5352 422.333C80.0859 424.569 75.0432 426.521 72.1559 429.029C70.9957 429.999 70.0691 431.217 69.4448 432.594C69.0381 433.57 68.9568 434.18 68.9026 434.167C68.8814 434.018 68.8814 433.868 68.9026 433.719C68.9711 433.304 69.0754 432.896 69.2144 432.499C69.7635 431.04 70.6672 429.74 71.8441 428.717C73.5913 427.238 75.5461 426.023 77.6459 425.112C79.9639 424.027 82.5394 422.888 85.2777 421.763C90.6999 419.527 95.7967 417.778 99.4974 416.639C101.341 416.07 102.846 415.636 103.889 415.365C104.435 415.183 104.998 415.06 105.57 414.999Z" fill="#E0E0E0"/>
<path d="M117.499 385.516C117.499 385.516 117.364 385.706 117.052 385.99L115.696 387.251L110.681 391.819L93.9805 406.73C87.4603 412.532 81.7805 418.076 77.9172 422.251C75.9652 424.339 74.4199 426.06 73.3761 427.267L72.1561 428.622C72.0271 428.794 71.8768 428.949 71.7087 429.083C71.8074 428.895 71.9255 428.718 72.0612 428.555C72.3187 428.216 72.6847 427.714 73.1999 427.091C74.1894 425.83 75.6805 424.054 77.6054 421.926C82.6491 416.421 87.9793 411.186 93.5738 406.242C100.121 400.454 106.072 395.262 110.396 391.507L115.547 387.088L116.903 385.922C117.083 385.761 117.283 385.624 117.499 385.516Z" fill="#E0E0E0"/>
<path d="M86.9586 412.586C86.7824 412.505 88.138 409.36 89.5071 405.388C90.8762 401.417 91.5133 398.055 91.6895 398.082C91.5487 400.65 91.0043 403.18 90.0764 405.578C89.4968 407.297 88.8179 408.981 88.0431 410.621C87.7675 411.32 87.4031 411.98 86.9586 412.586Z" fill="#E0E0E0"/>
<path d="M68.9707 437.935C68.5979 437.581 68.2618 437.191 67.9676 436.769L65.3921 433.475C63.2367 430.683 60.241 426.82 56.8927 422.631C53.5445 418.442 50.4674 414.62 48.2308 411.881L45.5603 408.655C45.2187 408.269 44.9146 407.852 44.6521 407.408C45.0478 407.734 45.411 408.097 45.7365 408.493C46.4143 409.225 47.3632 410.295 48.4476 411.637C50.7656 414.349 53.8699 418.049 57.2587 422.279C60.6476 426.508 63.5485 430.412 65.6225 433.272C66.6663 434.695 67.4932 435.875 68.0489 436.688C68.3993 437.07 68.7083 437.488 68.9707 437.935Z" fill="#E0E0E0"/>
<path d="M60.905 427.633C59.2872 425.843 58.1329 423.683 57.5432 421.343C56.9099 419.292 56.6527 417.142 56.7841 414.999H57.0417C56.9332 415.487 56.8383 415.745 56.7977 415.731C56.757 415.718 56.7977 415.46 56.7977 414.958H57.0688C57.1953 417.048 57.5544 419.117 58.1397 421.126C58.8961 423.362 59.8206 425.537 60.905 427.633Z" fill="#E0E0E0"/>
<path d="M50.5483 414.606C49.8213 414.058 49.029 413.603 48.1897 413.251C46.0823 412.617 43.8638 412.442 41.683 412.735C39.4662 412.906 37.2672 413.26 35.1086 413.793C34.2196 414.067 33.3141 414.284 32.3975 414.443C33.1989 413.956 34.0729 413.599 34.9866 413.386C37.1413 412.716 39.3651 412.294 41.6152 412.125C43.9004 411.816 46.2266 412.067 48.393 412.857C49.2898 413.177 50.0503 413.794 50.5483 414.606Z" fill="#E0E0E0"/>
<path d="M48.0814 411.447C48.0814 411.542 46.7259 410.892 44.4892 410.092C38.6605 408.111 32.424 407.645 26.3655 408.736C24.0475 409.157 22.6377 409.59 22.6106 409.482C22.9057 409.301 23.2253 409.164 23.5595 409.075C24.4479 408.771 25.3531 408.517 26.2706 408.316C29.3135 407.652 32.4367 407.433 35.5426 407.665C38.6523 407.91 41.7109 408.599 44.6248 409.712C45.5008 410.051 46.3563 410.44 47.1868 410.878C47.7968 411.217 48.1086 411.366 48.0814 411.447Z" fill="#E0E0E0"/>
<path d="M68.8484 398.082C67.7955 395.103 66.9308 392.06 66.2593 388.973C65.3831 385.933 64.6994 382.84 64.2124 379.714C65.283 382.691 66.1614 385.734 66.8422 388.823C67.7091 391.863 68.3792 394.956 68.8484 398.082Z" fill="#E0E0E0"/>
<path d="M68.9706 398.082C68.1316 396.209 67.1623 394.397 66.0697 392.66C64.8399 391.007 63.3999 389.521 61.7861 388.24C62.3986 388.387 62.9662 388.68 63.4399 389.094C64.6572 389.981 65.7159 391.067 66.5712 392.307C67.8697 393.985 68.6979 395.978 68.9706 398.082Z" fill="#E0E0E0"/>
<path d="M68.889 518.143C68.889 518.143 68.6993 517.127 68.2384 515.351C67.5357 512.85 66.5961 510.421 65.4324 508.099C61.3815 500.515 56.3698 493.485 50.5213 487.182C47.2137 483.387 44.0011 479.822 41.2629 476.338C38.8131 473.326 36.5971 470.131 34.6342 466.781C33.3212 464.518 32.2055 462.146 31.2995 459.692C30.9878 458.824 30.7573 458.147 30.6353 457.672C30.5524 457.435 30.4977 457.19 30.4727 456.94C30.4727 456.94 30.8251 457.903 31.5164 459.651C32.5264 462.061 33.7182 464.39 35.0815 466.619C37.0768 469.918 39.3104 473.066 41.7644 476.04C44.4755 479.429 47.7288 482.98 51.05 486.776C57.7599 494.313 63.0195 501.904 65.8255 507.909C67.0001 510.263 67.9094 512.741 68.5366 515.297C68.6993 515.99 68.826 516.691 68.9161 517.398C68.9374 517.646 68.9283 517.897 68.889 518.143Z" fill="#E0E0E0"/>
<path d="M101.965 480.784C101.41 481.138 100.835 481.459 100.243 481.747C98.6693 482.625 97.1648 483.622 95.7428 484.729C93.6329 486.378 91.6566 488.191 89.8326 490.151C87.7586 492.333 85.6303 494.882 83.4479 497.607C79.0966 503.029 75.0164 507.909 72.6035 511.772C71.3699 513.683 70.4617 515.297 69.8924 516.435C69.607 517.037 69.2856 517.621 68.9299 518.184C68.9637 518.011 69.0183 517.842 69.0926 517.682C69.2281 517.371 69.4044 516.91 69.6755 516.327C70.4408 514.683 71.3008 513.086 72.251 511.542C75.5622 506.568 79.1558 501.789 83.0141 497.227C85.1966 494.516 87.3655 491.954 89.4666 489.758C91.3364 487.814 93.363 486.028 95.5259 484.417C96.9819 483.329 98.5284 482.368 100.148 481.543C100.731 481.259 101.192 481.082 101.504 480.947C101.816 480.811 101.965 480.757 101.965 480.784Z" fill="#E0E0E0"/>
<path d="M102.615 492.903C101.409 493.165 100.186 493.342 98.9552 493.431C96.012 493.729 93.1029 494.3 90.2661 495.139C87.4631 496.05 84.8328 497.424 82.4853 499.206C80.6824 500.562 79.7742 501.741 79.7742 501.673C79.9091 501.366 80.0922 501.082 80.3164 500.833C80.887 500.12 81.5273 499.466 82.2277 498.881C84.5484 496.951 87.2172 495.483 90.0899 494.557C92.9666 493.698 95.9319 493.171 98.9281 492.984C100.152 492.84 101.386 492.813 102.615 492.903Z" fill="#E0E0E0"/>
<path d="M80.8316 500.358C80.6418 500.25 82.2956 497.729 83.5427 494.34C84.7898 490.951 85.0203 487.914 85.2372 487.941C85.3531 488.592 85.3531 489.257 85.2372 489.907C84.8935 493.079 83.7967 496.123 82.0381 498.786C81.7289 499.375 81.3208 499.907 80.8316 500.358Z" fill="#E0E0E0"/>
<path d="M112.687 448.237C112.5 448.363 112.3 448.467 112.091 448.549L110.369 449.335C109.624 449.661 108.702 450.067 107.658 450.61C106.614 451.152 105.421 451.694 104.161 452.453L102.155 453.592C101.463 453.985 100.799 454.459 100.053 454.947C98.5759 455.842 97.0984 456.94 95.5259 458.065C92.1604 460.595 88.9886 463.372 86.037 466.375C83.1406 469.414 80.472 472.663 78.0528 476.094C76.9819 477.707 75.9382 479.225 75.0977 480.73C74.6639 481.476 74.2166 482.167 73.8371 482.885L72.7662 484.919C72.0613 486.193 71.5462 487.426 71.0446 488.484C70.5431 489.541 70.1635 490.449 69.8653 491.195C69.5671 491.94 69.3366 492.483 69.1468 492.944C69.0724 493.154 68.9722 493.354 68.8486 493.54C68.883 493.322 68.9421 493.108 69.0249 492.903C69.1875 492.428 69.3908 491.832 69.6484 491.114C69.9601 490.162 70.3267 489.23 70.7464 488.321C71.2073 487.25 71.6953 486.003 72.3866 484.702L73.4304 482.628C73.7964 481.909 74.2302 481.204 74.6639 480.445C75.4908 478.927 76.5346 477.382 77.5919 475.755C82.3768 468.753 88.3121 462.612 95.1464 457.591C96.7459 456.466 98.2506 455.368 99.7417 454.487C100.487 454.039 101.179 453.578 101.883 453.131L103.917 452.019C105.191 451.287 106.425 450.759 107.468 450.257C108.35 449.81 109.255 449.412 110.179 449.064L111.942 448.387C112.184 448.308 112.434 448.258 112.687 448.237Z" fill="#E0E0E0"/>
<path d="M86.4978 465.778C86.7506 464.933 87.2569 464.185 87.9482 463.636C89.5595 462.234 91.6144 461.447 93.75 461.413C95.8424 461.402 97.9162 461.807 99.85 462.606C100.669 462.859 101.446 463.234 102.154 463.718C101.315 463.561 100.493 463.32 99.7009 462.999C97.7874 462.354 95.7828 462.02 93.7636 462.01C91.7555 462.057 89.8142 462.741 88.2194 463.962C87.6064 464.529 87.0314 465.136 86.4978 465.778Z" fill="#E0E0E0"/>
<path d="M82.594 469.818C83.3655 468.11 83.9166 466.31 84.2342 464.463C84.3697 462.572 84.2512 460.671 83.8818 458.811C84.2305 459.268 84.4631 459.803 84.5595 460.37C84.9064 461.696 85.0075 463.074 84.8578 464.436C84.6999 465.809 84.2812 467.138 83.6242 468.354C83.0955 469.384 82.6482 469.858 82.594 469.818Z" fill="#E0E0E0"/>
<path d="M39.9617 524.135C40.8699 540.144 45.6821 556.424 53.1105 572.935H85.3727C92.4487 556.668 96.9356 540.401 97.7353 524.135H39.9617Z" fill="#E0E0E0"/>
<path d="M92.503 550.039C92.503 550.216 81.889 550.351 68.7808 550.351C55.6726 550.351 45.0586 550.216 45.0586 550.039C45.0586 549.863 55.6726 549.741 68.7808 549.741C81.889 549.741 92.503 549.877 92.503 550.039Z" fill="#FAFAFA"/>
<path d="M91.7845 555.841C91.7845 556.004 81.8348 556.139 69.5535 556.139C57.2722 556.139 47.2817 556.004 47.2817 555.841C47.2817 555.679 57.2315 555.543 69.5264 555.543C81.8212 555.543 91.7845 555.679 91.7845 555.841Z" fill="#FAFAFA"/>
<path d="M53.6256 534.722C54.0443 539.683 54.0443 544.671 53.6256 549.633C53.2251 544.67 53.2251 539.684 53.6256 534.722Z" fill="#FAFAFA"/>
<path d="M70.9224 534.722C71.32 539.842 71.32 544.986 70.9224 550.107C70.5067 544.987 70.5067 539.842 70.9224 534.722Z" fill="#FAFAFA"/>
<path d="M87.1484 534.518C87.5461 539.743 87.5461 544.991 87.1484 550.216C86.7328 544.991 86.7328 539.742 87.1484 534.518Z" fill="#FAFAFA"/>
<path d="M96.7188 534.722C96.7188 534.884 84.2477 535.02 68.8893 535.02C53.5309 535.02 41.0598 534.884 41.0598 534.722C41.0598 534.559 53.5174 534.41 68.8893 534.41C84.2613 534.41 96.7188 534.478 96.7188 534.722Z" fill="#FAFAFA"/>
<path d="M142.075 49.2031H12.7285V236.69H142.075V49.2031Z" fill="#E0E0E0"/>
<path d="M135.596 49.2031H6.24927V236.69H135.596V49.2031Z" fill="#F5F5F5"/>
<path d="M119.519 69.5093H22.3123V216.384H119.519V69.5093Z" fill="white"/>
<path d="M119.519 216.37C119.519 216.37 119.519 216.126 119.519 215.651C119.519 215.177 119.519 214.486 119.519 213.577C119.519 211.734 119.519 209.023 119.519 205.444C119.519 198.409 119.519 188.147 119.438 175.202C119.438 149.297 119.343 112.629 119.275 69.4686L119.601 69.7804H22.4075L22.7599 69.4279C22.7599 124.829 22.7599 175.907 22.6921 216.289L22.4075 216.017L93.1673 216.167L112.714 216.234H117.838H119.614C119.614 216.234 119.045 216.234 117.893 216.234H112.823L93.33 216.302L22.4075 216.451H22.1228V216.167C22.1228 175.785 22.1228 124.707 22.1228 69.3059V68.9535H22.4888H119.682H120.007V69.2788C120.007 112.548 119.885 149.256 119.845 175.242C119.845 188.174 119.845 198.409 119.763 205.431C119.763 208.901 119.763 211.585 119.763 213.415C119.763 214.309 119.763 214.987 119.763 215.462C119.763 215.936 119.519 216.37 119.519 216.37Z" fill="#E0E0E0"/>
<path d="M135.948 49.2031C135.283 50.3864 134.511 51.507 133.644 52.5513C132.139 54.5576 130.011 57.2958 127.571 60.2509C125.131 63.206 122.867 65.8222 121.186 67.6793C120.329 68.7318 119.376 69.7029 118.34 70.5802C119.065 69.4343 119.891 68.3547 120.807 67.354L127.029 59.8036L133.251 52.2396C134.063 51.1538 134.966 50.1381 135.948 49.2031Z" fill="#E0E0E0"/>
<path d="M120.021 215.896C124.848 223.585 130.533 230.702 136.965 237.11L120.021 215.896Z" fill="white"/>
<path d="M136.965 237.11C135.892 236.306 134.902 235.398 134.01 234.399C131.756 232.106 129.62 229.699 127.612 227.187C125.607 224.676 123.729 222.065 121.986 219.366C121.206 218.279 120.547 217.111 120.021 215.882C120.882 216.894 121.675 217.963 122.393 219.081C123.83 221.087 125.822 223.826 128.167 226.754C130.512 229.681 132.736 232.176 134.376 234.06C135.323 235.002 136.189 236.023 136.965 237.11Z" fill="#E0E0E0"/>
<path d="M6.22192 236.5L23.1663 215.597L6.22192 236.5Z" fill="white"/>
<path d="M23.1663 215.624C20.6188 219.324 17.8815 222.889 14.9652 226.306C12.232 229.855 9.31352 233.258 6.22192 236.5C8.77175 232.806 11.509 229.245 14.423 225.832C17.1584 222.28 20.0768 218.873 23.1663 215.624Z" fill="#E0E0E0"/>
<path d="M6.24927 49.2031C9.16477 52.3267 11.9071 55.6075 14.4639 59.0309C17.2078 62.308 19.7692 65.7337 22.1364 69.2924C19.2139 66.1713 16.467 62.8903 13.9081 59.4647C11.1658 56.1897 8.60883 52.7638 6.24927 49.2031Z" fill="#E0E0E0"/>
<path d="M89.236 99.3179H56.6892V191.726H89.236V99.3179Z" fill="#E0E0E0"/>
<path d="M615.557 573.192C615.557 573.396 480.001 573.545 312.984 573.545C145.966 573.545 10.3835 573.396 10.3835 573.192C10.3835 572.989 145.83 572.84 312.984 572.84C480.137 572.84 615.557 573.003 615.557 573.192Z" fill="#263238"/>
<path d="M134.593 39.3618H519.882C523.748 39.3618 527.456 40.8966 530.191 43.629C532.926 46.3615 534.464 50.0679 534.467 53.934V557.658C534.467 561.526 532.931 565.236 530.195 567.971C527.46 570.707 523.75 572.243 519.882 572.243H134.593V39.3618Z" fill="#316E92"/>
<g opacity="0.3">
<path opacity="0.3" d="M134.593 39.3618H519.882C523.748 39.3618 527.456 40.8966 530.191 43.629C532.926 46.3615 534.464 50.0679 534.467 53.934V557.658C534.467 561.526 532.931 565.236 530.195 567.971C527.46 570.707 523.75 572.243 519.882 572.243H134.593V39.3618Z" fill="black"/>
</g>
<path d="M523.393 55.8589H309.622V572.23H523.393V55.8589Z" fill="#E0E0E0"/>
<path d="M132.925 35.1596H491.008C494.877 35.1596 498.587 36.6963 501.322 39.4317C504.057 42.167 505.594 45.877 505.594 49.7454V557.658C505.594 561.526 504.057 565.236 501.322 567.971C498.587 570.707 494.877 572.243 491.008 572.243H132.925V35.1596Z" fill="#316E92"/>
<path d="M171.233 573.206C171.03 573.206 170.881 452.751 170.881 304.196C170.881 155.641 171.03 35.1596 171.233 35.1596C171.437 35.1596 171.586 155.587 171.586 304.196C171.586 452.806 171.423 573.206 171.233 573.206Z" fill="#263238"/>
<path d="M181.291 573.206C181.102 573.206 180.939 452.751 180.939 304.196C180.939 155.641 181.102 35.1596 181.291 35.1596C181.481 35.1596 181.644 155.587 181.644 304.196C181.644 452.806 181.481 573.206 181.291 573.206Z" fill="#263238"/>
<path d="M270.229 234.548L270.134 217.726L262.001 231.417H258.002L249.869 218.173V234.548H241.573V202.801H248.961L260.103 221.128L270.948 202.801H278.335L278.43 234.548H270.229Z" fill="white"/>
<path d="M306.111 228.367H292.637L290.142 234.534H280.979L294.995 202.787H303.847L317.904 234.534H308.564L306.111 228.367ZM303.481 221.765L299.414 211.598L295.348 221.765H303.481Z" fill="white"/>
<path d="M350.709 202.801V234.548H343.307L329.237 217.631V234.548H320.439V202.801H327.881L341.898 219.718V202.801H350.709Z" fill="white"/>
<path d="M356.781 220.396V202.774H365.836V220.098C365.836 225.52 368.1 227.716 371.869 227.716C375.637 227.716 377.847 225.547 377.847 220.098V202.801H386.698V220.423C386.698 229.912 381.168 235.212 371.787 235.212C362.407 235.212 356.781 229.885 356.781 220.396Z" fill="white"/>
<path d="M413.281 228.367H399.847L397.353 234.534H388.189L402.206 202.787H411.058L425.115 234.534H415.775L413.281 228.367ZM410.651 221.751L406.584 211.585L402.518 221.751H410.651Z" fill="white"/>
<path d="M427.69 202.801H436.664V227.431H451.819V234.548H427.69V202.801Z" fill="white"/>
<path d="M255.264 174.809H257.135V192.539H255.264V174.809Z" fill="white"/>
<path d="M277.725 174.809V192.539H276.18L264.793 178.211V192.607H262.909V174.809H264.455L275.895 189.191V174.809H277.725Z" fill="white"/>
<path d="M281.792 190.411L282.524 188.974C284.148 190.381 286.232 191.143 288.38 191.116C291.701 191.116 293.152 189.76 293.152 187.985C293.152 183.118 282.226 186.1 282.226 179.54C282.226 176.937 284.259 174.673 288.76 174.673C290.708 174.651 292.621 175.197 294.263 176.246L293.626 177.75C292.177 176.806 290.489 176.294 288.76 176.273C285.52 176.273 284.069 177.723 284.069 179.499C284.069 184.352 294.995 181.424 294.995 187.876C294.995 190.492 292.921 192.716 288.38 192.716C285.973 192.8 283.622 191.978 281.792 190.411Z" fill="white"/>
<path d="M302.302 176.422H296.066V174.809H310.408V176.422H304.172V192.539H302.302V176.422Z" fill="white"/>
<path d="M325.509 192.539L321.442 186.832C320.992 186.885 320.539 186.913 320.086 186.914H315.274V192.539H313.404V174.809H320.032C324.546 174.809 327.284 177.086 327.284 180.882C327.358 182.138 326.993 183.381 326.251 184.397C325.509 185.414 324.437 186.14 323.218 186.453L327.556 192.539H325.509ZM325.414 180.882C325.414 178.048 323.53 176.422 319.992 176.422H315.274V185.314H319.992C323.53 185.314 325.414 183.633 325.414 180.922V180.882Z" fill="white"/>
<path d="M331.568 184.989V174.836H333.439V184.921C333.439 189.123 335.418 191.048 338.861 191.048C342.304 191.048 344.283 189.123 344.283 184.921V174.836H346.113V184.989C346.113 190.086 343.402 192.715 338.834 192.715C334.266 192.715 331.568 190.059 331.568 184.989Z" fill="white"/>
<path d="M350.221 183.633C350.205 182.42 350.437 181.217 350.902 180.096C351.367 178.976 352.056 177.962 352.926 177.117C353.797 176.272 354.83 175.613 355.964 175.182C357.098 174.75 358.308 174.554 359.52 174.605C360.723 174.559 361.923 174.765 363.041 175.211C364.159 175.657 365.172 176.333 366.013 177.195L364.82 178.387C364.139 177.693 363.321 177.148 362.418 176.786C361.515 176.424 360.546 176.254 359.574 176.286C357.625 176.286 355.757 177.06 354.379 178.438C353.001 179.816 352.227 181.685 352.227 183.633C352.227 185.582 353.001 187.451 354.379 188.829C355.757 190.206 357.625 190.98 359.574 190.98C360.548 191.011 361.518 190.837 362.422 190.471C363.325 190.104 364.142 189.553 364.82 188.852L366.013 190.045C365.169 190.911 364.152 191.591 363.029 192.039C361.906 192.487 360.701 192.695 359.493 192.648C358.283 192.7 357.076 192.504 355.944 192.073C354.813 191.641 353.782 190.983 352.913 190.139C352.045 189.295 351.359 188.283 350.896 187.164C350.433 186.046 350.203 184.844 350.221 183.633Z" fill="white"/>
<path d="M373.238 176.422H367.002V174.809H381.344V176.422H375.108V192.539H373.238V176.422Z" fill="white"/>
<path d="M384.34 174.809H386.17V192.539H384.299L384.34 174.809Z" fill="white"/>
<path d="M390.413 183.633C390.353 181.78 390.848 179.952 391.834 178.382C392.82 176.812 394.252 175.572 395.947 174.821C397.642 174.07 399.522 173.842 401.347 174.166C403.173 174.49 404.86 175.351 406.193 176.639C407.526 177.927 408.444 179.584 408.829 181.398C409.215 183.211 409.051 185.098 408.358 186.817C407.665 188.536 406.474 190.01 404.939 191.049C403.403 192.087 401.593 192.644 399.739 192.648C398.526 192.701 397.315 192.507 396.18 192.077C395.045 191.647 394.01 190.99 393.137 190.146C392.264 189.303 391.573 188.29 391.104 187.17C390.636 186.051 390.401 184.847 390.413 183.633ZM407.167 183.633C407.189 182.153 406.769 180.7 405.962 179.459C405.155 178.218 403.996 177.246 402.635 176.666C401.273 176.086 399.769 175.924 398.315 176.202C396.861 176.479 395.522 177.183 394.47 178.224C393.417 179.265 392.699 180.596 392.405 182.047C392.112 183.498 392.257 185.003 392.822 186.371C393.387 187.739 394.347 188.908 395.578 189.729C396.81 190.55 398.259 190.986 399.739 190.98C400.717 191.014 401.691 190.847 402.602 190.491C403.513 190.135 404.341 189.596 405.037 188.908C405.732 188.22 406.28 187.398 406.647 186.491C407.013 185.584 407.19 184.611 407.167 183.633Z" fill="white"/>
<path d="M428.07 174.809V192.539H426.524L415.124 178.211V192.607H413.281V174.809H414.826L426.253 189.191V174.809H428.07Z" fill="white"/>
<g opacity="0.3">
<path opacity="0.3" d="M181.305 35.1596H171.233V573.206H181.305V35.1596Z" fill="black"/>
</g>
<path d="M392.947 96.6339V35.1596H452.158V97.7726L423.122 126.809L392.947 96.6339Z" fill="#455A64"/>
<path d="M510.881 55.8588C511.07 55.8588 511.233 170.213 511.233 311.245C511.233 452.277 511.07 566.658 510.881 566.658C510.691 566.658 510.528 452.331 510.528 311.245C510.528 170.159 510.718 55.8588 510.881 55.8588Z" fill="#263238"/>
<path d="M516.981 55.8588C517.17 55.8588 517.333 170.213 517.333 311.245C517.333 452.277 517.17 566.658 516.981 566.658C516.791 566.658 516.628 452.331 516.628 311.245C516.628 170.159 516.777 55.8588 516.981 55.8588Z" fill="#263238"/>
<path d="M510.921 130.157H525.751L539.307 140.432L527.147 152.578H510.921V130.157Z" fill="#455A64"/>
<path d="M544.986 174.185H516.981V192.838H544.986V174.185Z" fill="#316E92"/>
<g opacity="0.3">
<path opacity="0.3" d="M408.645 395.832L391.917 412.098C391.093 412.898 389.989 413.346 388.84 413.346C387.691 413.346 386.588 412.898 385.763 412.098L270.541 301.81C269.693 300.997 269.203 299.881 269.178 298.707C269.152 297.533 269.594 296.397 270.405 295.548L287.865 277.302C288.271 276.879 288.757 276.541 289.294 276.307C289.832 276.072 290.411 275.947 290.997 275.939C291.583 275.93 292.165 276.037 292.71 276.255C293.254 276.473 293.75 276.796 294.168 277.207L408.699 389.433C409.129 389.85 409.469 390.349 409.7 390.901C409.931 391.453 410.048 392.046 410.042 392.644C410.037 393.242 409.911 393.833 409.671 394.381C409.43 394.929 409.081 395.423 408.645 395.832Z" fill="black"/>
</g>
<path d="M301.339 284.703C299.966 286.617 298.413 288.397 296.703 290.017C295.154 291.795 293.433 293.416 291.566 294.856C292.936 292.939 294.488 291.16 296.202 289.543C297.748 287.761 299.469 286.14 301.339 284.703Z" fill="#263238"/>
<path d="M319.653 302.339C316.739 306.043 313.466 309.449 309.879 312.506C311.247 310.583 312.799 308.798 314.515 307.178C316.069 305.405 317.79 303.784 319.653 302.339Z" fill="#263238"/>
<path d="M310.083 292.769C308.147 295.261 306.031 297.608 303.752 299.791C301.652 302.123 299.387 304.302 296.974 306.311C298.912 303.825 301.028 301.482 303.305 299.303C305.399 296.96 307.665 294.776 310.083 292.769Z" fill="#263238"/>
<path d="M328.911 311.598C326.978 314.087 324.862 316.43 322.581 318.606C320.482 320.945 318.217 323.128 315.803 325.14C319.845 320.302 324.24 315.771 328.952 311.584L328.911 311.598Z" fill="#263238"/>
<path d="M337.56 320.26C336.195 322.181 334.642 323.961 332.924 325.573C331.377 327.349 329.661 328.97 327.8 330.413C329.161 328.493 330.709 326.713 332.422 325.099C333.972 323.321 335.692 321.7 337.56 320.26Z" fill="#263238"/>
<path d="M346.859 329.518C344.919 331.999 342.809 334.341 340.542 336.526C338.447 338.865 336.182 341.044 333.764 343.046C335.706 340.563 337.821 338.222 340.094 336.038C342.186 333.702 344.447 331.523 346.859 329.518Z" fill="#263238"/>
<path d="M355.48 338.166C352.567 341.87 349.293 345.276 345.707 348.333C347.074 346.41 348.627 344.626 350.343 343.006C351.888 341.224 353.609 339.603 355.48 338.166Z" fill="#263238"/>
<path d="M364.725 347.425C362.799 349.917 360.687 352.26 358.408 354.433C356.315 356.777 354.05 358.961 351.63 360.967C353.565 358.474 355.681 356.127 357.961 353.945C360.057 351.613 362.317 349.434 364.725 347.425Z" fill="#263238"/>
<path d="M373.387 356.073C370.473 359.777 367.199 363.183 363.613 366.24C364.985 364.32 366.537 362.536 368.249 360.913C369.808 359.144 371.528 357.523 373.387 356.073Z" fill="#263238"/>
<path d="M382.645 365.278C380.71 367.77 378.594 370.117 376.315 372.299C374.214 374.632 371.949 376.811 369.537 378.82C371.472 376.335 373.583 373.993 375.854 371.811C377.955 369.47 380.225 367.287 382.645 365.278Z" fill="#263238"/>
<path d="M391.294 373.994C389.937 375.917 388.388 377.697 386.671 379.307C385.118 381.082 383.397 382.702 381.534 384.147C382.897 382.225 384.451 380.445 386.17 378.833C387.717 377.057 389.433 375.437 391.294 373.994Z" fill="#263238"/>
<g opacity="0.3">
<path opacity="0.3" d="M347.821 322.212L363.952 337.34L374.797 326.671C374.797 326.671 392.243 332.094 403.467 319.704C413.661 308.493 410.624 292.186 410.624 292.186L391.836 308.765L375.935 292.864L392.704 275.472C387.447 274.108 381.912 274.258 376.736 275.903C371.561 277.548 366.955 280.622 363.451 284.771C353.365 296.199 358.571 311.218 358.571 311.218L347.821 322.212Z" fill="black"/>
</g>
<g opacity="0.3">
<path opacity="0.3" d="M327.786 366.362C327.393 365.657 311.682 351.275 311.682 351.275L301.461 361.279C301.461 361.279 282.28 357.456 272.791 368.246C262.164 380.324 265.634 395.764 265.634 395.764L284.422 379.185L300.322 395.1L283.554 412.478C288.806 413.845 294.337 413.702 299.512 412.067C304.686 410.431 309.294 407.37 312.807 403.233C322.892 391.806 317.687 376.773 317.687 376.773L327.786 366.362Z" fill="black"/>
</g>
<path d="M460.467 512.83C460.467 513.033 409.58 513.182 346.831 513.182C284.083 513.182 233.182 513.033 233.182 512.83C233.182 512.626 284.056 512.477 346.831 512.477C409.607 512.477 460.467 512.64 460.467 512.83Z" fill="white"/>
<path d="M422.553 523.66C422.553 523.85 389.084 524.013 347.821 524.013C306.558 524.013 273.076 523.85 273.076 523.66C273.076 523.471 306.544 523.308 347.821 523.308C389.097 523.308 422.553 523.457 422.553 523.66Z" fill="white"/>
<path d="M355.778 534.057H337.871V551.964H355.778V534.057Z" fill="#E0E0E0"/>
<path d="M585.056 485.325C586.263 481.15 588.838 477.124 592.824 475.416C596.809 473.708 601.757 474.643 606 476.175C610.243 477.707 614.404 479.781 618.905 480.066C623.405 480.35 628.488 478.209 629.844 473.898C631.105 469.831 628.665 465.534 625.615 462.593C622.388 459.485 618.432 457.241 614.109 456.065C609.787 454.89 605.239 454.822 600.883 455.867C596.528 456.912 592.505 459.037 589.187 462.046C585.869 465.055 583.363 468.852 581.898 473.085" fill="#263238"/>
<path d="M549.378 503.408C542.777 497.132 543.102 486.206 546.396 477.721C549.69 469.235 556.888 462.688 564.927 458.39C572.769 454.272 581.442 451.983 590.296 451.697C599.149 451.411 607.952 453.134 616.045 456.737C612.082 456.906 608.221 458.045 604.801 460.054C601.381 462.062 598.507 464.88 596.43 468.259C592.81 474.278 591.997 481.57 589.015 487.914C585.643 495.076 579.655 500.674 572.283 503.556C564.91 506.438 556.713 506.385 549.378 503.408Z" fill="#455A64"/>
<path d="M546.206 465.71C538.886 457.076 537.91 443.208 538.995 431.944C540.079 420.679 542.682 409.347 540.906 398.163C539.849 391.548 537.287 385.218 536.419 378.576C535.552 371.933 536.772 364.41 541.923 360.113C547.847 355.179 557.173 356.344 563.327 360.98C569.481 365.616 573.06 372.882 575.663 380.134C581.397 396.062 583.498 413.739 578.794 429.992C574.09 446.245 563.042 460.79 546.844 465.71" fill="#455A64"/>
<path d="M542.695 536.552C542.66 536.218 542.66 535.882 542.695 535.549C542.695 534.898 542.695 533.936 542.695 532.702C542.79 530.221 543.021 526.643 543.563 522.237C544.213 517.083 545.149 511.969 546.369 506.919C547.878 500.713 550.232 494.742 553.364 489.175C556.495 483.61 560.337 478.474 564.791 473.898C568.416 470.16 572.433 466.824 576.774 463.948C578.604 462.688 580.38 461.725 581.898 460.844C583.416 459.963 584.826 459.353 585.965 458.811L588.608 457.713C588.895 457.591 589.195 457.505 589.503 457.455C589.218 457.626 588.924 457.78 588.622 457.916L586.046 459.136C584.948 459.705 583.606 460.41 582.074 461.251C580.542 462.091 578.834 463.149 577.045 464.423C567.536 470.931 559.651 479.539 554.001 489.582C547.223 501.348 545.434 513.697 544.092 522.373C543.482 526.751 543.17 530.316 542.994 532.783C542.926 533.963 542.872 534.912 542.817 535.63C542.797 535.94 542.756 536.247 542.695 536.552Z" fill="#263238"/>
<path d="M479.594 431.7C466.039 439.833 466.107 447.289 468.37 454.31C470.634 461.332 478.93 466.199 485.816 463.569C489.707 462.091 492.526 458.702 494.939 455.3C497.352 451.897 499.616 448.265 502.991 445.811C506.367 443.357 511.26 442.436 514.649 444.849" fill="#263238"/>
<path d="M469.469 440.592C473.006 435.699 481.75 434.289 487.267 436.729C492.784 439.169 496.824 444.008 500.443 448.834C504.062 453.66 507.587 458.77 512.643 462.132C517.699 465.494 524.667 466.7 529.655 463.325C531.25 462.136 532.586 460.635 533.582 458.913C534.577 457.19 535.21 455.283 535.443 453.307C535.882 449.36 535.611 445.366 534.643 441.514C533.451 435.834 531.499 429.91 526.957 426.305C521.901 422.238 514.866 422.089 508.414 422.306C500.999 422.55 493.502 423.105 486.521 425.667C479.54 428.229 472.464 433.801 469.509 440.578" fill="#455A64"/>
<path d="M531.444 525.707C531.38 525.322 531.349 524.932 531.35 524.542C531.35 523.715 531.282 522.59 531.228 521.18C531.133 518.198 531.011 513.995 530.848 508.831C530.685 503.666 530.468 497.403 530.089 490.517C529.709 483.631 529.194 476.067 528.15 468.191C527.705 464.36 526.953 460.57 525.9 456.859C524.833 453.435 523.449 450.117 521.766 446.95C518.984 441.538 515.304 436.638 510.881 432.459C507.862 429.677 504.456 427.349 500.768 425.545C499.768 425.039 498.74 424.586 497.691 424.19C497.317 424.063 496.954 423.904 496.607 423.715C496.989 423.804 497.365 423.917 497.732 424.054C498.808 424.386 499.859 424.794 500.877 425.274C504.649 426.987 508.133 429.273 511.206 432.052C515.729 436.226 519.494 441.152 522.335 446.611C524.054 449.811 525.47 453.164 526.564 456.628C527.639 460.372 528.401 464.199 528.842 468.069C529.899 475.986 530.387 483.563 530.74 490.463C531.092 497.363 531.241 503.571 531.35 508.79C531.458 514.009 531.485 518.279 531.499 521.153V524.514C531.514 524.913 531.496 525.312 531.444 525.707Z" fill="#263238"/>
<path d="M536.311 531.821C535.656 529.93 535.153 527.99 534.806 526.019C533.863 520.627 533.649 515.133 534.169 509.685C535.005 501.596 536.742 493.625 539.347 485.922C542.058 477.219 545.894 467.907 549.121 457.903C552.198 448.531 554.137 438.823 554.895 428.989C555.514 420.939 555.663 412.859 555.343 404.792C555.112 397.906 554.746 392.334 554.529 388.525C554.421 386.641 554.34 385.164 554.272 384.093C554.272 383.618 554.272 383.239 554.272 382.94C554.257 382.81 554.257 382.678 554.272 382.547C554.293 382.678 554.293 382.81 554.272 382.94L554.394 384.079C554.475 385.15 554.611 386.628 554.773 388.512C555.085 392.362 555.519 397.933 555.804 404.778C556.236 412.845 556.172 420.93 555.614 428.989C555.246 433.76 554.612 438.507 553.716 443.208C552.723 448.253 551.424 453.233 549.826 458.119C546.599 468.164 542.804 477.463 540.011 486.139C537.401 493.772 535.633 501.667 534.738 509.685C534.175 515.102 534.312 520.569 535.145 525.951C535.484 527.849 535.782 529.313 536.04 530.303L536.311 531.428C536.327 531.558 536.327 531.69 536.311 531.821Z" fill="#263238"/>
<path d="M569.861 537.948H506.313L504.862 525.707H569.861V537.948Z" fill="#263238"/>
<path d="M513.144 536.552L521.088 573.246H555.614L563.042 536.552H513.144Z" fill="#263238"/>
<path d="M569.861 537.948C569.861 538.138 555.899 538.26 538.683 538.205C521.468 538.151 507.505 537.961 507.505 537.772C507.505 537.582 521.468 537.46 538.683 537.5C555.899 537.541 569.861 537.745 569.861 537.948Z" fill="#455A64"/>
<path d="M558.962 556.058C557.221 554.782 555.338 553.713 553.35 552.873C551.187 552.031 548.893 551.572 546.572 551.517C543.72 551.526 540.892 552.045 538.222 553.049C535.321 554.025 532.624 555.163 529.981 555.76C527.637 556.264 525.221 556.338 522.85 555.977C521.252 555.739 519.704 555.24 518.269 554.499C517.885 554.293 517.518 554.058 517.171 553.794C516.927 553.618 516.818 553.51 516.832 553.483C518.711 554.538 520.779 555.215 522.918 555.475C525.225 555.763 527.564 555.648 529.831 555.136C532.366 554.499 535.077 553.347 537.965 552.425C540.712 551.395 543.625 550.88 546.559 550.907C548.956 550.987 551.317 551.506 553.526 552.439C554.984 553.069 556.351 553.889 557.593 554.879C557.939 555.145 558.269 555.43 558.583 555.733C558.867 555.923 558.976 556.031 558.962 556.058Z" fill="#455A64"/>
<path d="M558.474 558.498C556.778 557.273 554.961 556.224 553.052 555.367C550.966 554.517 548.742 554.058 546.491 554.011C543.738 554.02 541.009 554.511 538.425 555.462C535.619 556.397 533.003 557.481 530.482 558.173C528.255 558.812 525.935 559.069 523.623 558.932C522.06 558.833 520.533 558.418 519.136 557.712C518.762 557.509 518.404 557.278 518.065 557.021C517.848 556.844 517.726 556.749 517.74 556.722C517.753 556.695 518.282 557.021 519.258 557.468C520.656 558.052 522.149 558.378 523.663 558.43C525.91 558.492 528.152 558.195 530.306 557.549C532.759 556.844 535.362 555.76 538.195 554.838C540.859 553.858 543.679 553.372 546.518 553.401C548.854 553.463 551.156 553.978 553.296 554.919C554.719 555.546 556.05 556.362 557.254 557.346C557.591 557.602 557.908 557.883 558.203 558.186C558.402 558.385 558.492 558.489 558.474 558.498Z" fill="white"/>
<path d="M559.586 553.618C557.79 552.301 555.858 551.178 553.825 550.27C551.613 549.323 549.257 548.759 546.857 548.603C543.916 548.541 540.992 549.057 538.249 550.121C535.458 551.213 532.607 552.145 529.709 552.913C527.273 553.329 524.785 553.329 522.349 552.913C520.718 552.647 519.136 552.135 517.658 551.395C517.261 551.186 516.88 550.945 516.52 550.677C516.276 550.487 516.154 550.378 516.167 550.365C516.181 550.351 516.737 550.677 517.78 551.151C519.281 551.778 520.858 552.202 522.471 552.412C524.848 552.756 527.265 552.71 529.628 552.276C532.485 551.481 535.299 550.54 538.059 549.457C540.888 548.363 543.908 547.852 546.938 547.952C551.081 548.273 555.04 549.8 558.325 552.344C558.676 552.618 559.011 552.912 559.328 553.225C559.491 553.483 559.599 553.605 559.586 553.618Z" fill="white"/>
</svg>
